<svg version="1.1" id="Layer_1" xmlns="http://www.w3.org/2000/svg" xmlns:xlink="http://www.w3.org/1999/xlink" x="0px" y="0px" viewBox="0 0 171.1 55.3" style="enable-background:new 0 0 171.1 55.3;" xml:space="preserve">
 <style type="text/css">
  .st0{clip-path:url(#SVGID_2_);fill:#FFFFFF;}
 </style>
 <g>
  <defs>
   <rect id="SVGID_1_" width="171.1" height="55.3">
   </rect>
  </defs>
  <clipPath id="SVGID_2_">
   <use href="#SVGID_1_" style="overflow:visible;">
   </use>
  </clipPath>
  <path class="st0" d="M62.5,14.5c0-3-0.1-3.4-1.8-3.6l-0.5-0.1c-0.2-0.1-0.1-0.6,0.1-0.7c1.2,0.1,2.2,0.1,3.4,0.1h5.4&#xA;&#x9;&#x9;c1.9,0,3.6,0,3.9-0.1c0.2,0.5,0.3,2.6,0.5,3.8c-0.1,0.2-0.6,0.2-0.7,0.1c-0.4-1.4-0.7-2.4-2.2-2.7c-0.6-0.1-1.5-0.2-2.8-0.2h-2.1&#xA;&#x9;&#x9;c-0.9,0-0.9,0.1-0.9,1.2V18c0,0.8,0.1,0.8,1,0.8h1.7c1.2,0,2.1-0.1,2.5-0.2c0.3-0.1,0.5-0.3,0.7-1l0.2-1.2c0.1-0.2,0.6-0.2,0.8,0&#xA;&#x9;&#x9;c0,0.7-0.1,1.8-0.1,2.9c0,1,0.1,2.1,0.1,2.8c-0.1,0.2-0.6,0.2-0.8,0l-0.3-1.1c-0.1-0.5-0.3-1-0.9-1.1c-0.4-0.1-1.1-0.1-2.2-0.1&#xA;&#x9;&#x9;h-1.7c-0.9,0-1,0-1,0.8v4.1c0,1.5,0.1,2.5,0.5,3c0.3,0.3,1,0.7,3.5,0.7c2.2,0,3.1-0.1,3.7-0.4c0.5-0.3,1.3-1.3,2.1-2.8&#xA;&#x9;&#x9;c0.2-0.1,0.6-0.1,0.7,0.2c-0.2,1-0.9,3.2-1.3,4c-2.6-0.1-5.2-0.1-7.8-0.1h-2.6c-1.2,0-2.2,0-3.9,0.1c-0.2-0.1-0.2-0.5-0.1-0.7&#xA;&#x9;&#x9;l1-0.1c1.6-0.1,1.8-0.6,1.8-3.6V14.5z">
  </path>
  <path class="st0" d="M78.3,21c0-1.1,0-1.3-0.8-1.8L77.3,19c-0.1-0.1-0.1-0.4,0-0.5c0.7-0.2,2.3-1,2.9-1.4c0.1,0,0.3,0.1,0.3,0.2&#xA;&#x9;&#x9;c-0.1,0.7-0.1,1.1-0.1,1.4c0,0.2,0.1,0.3,0.3,0.3c1.2-0.8,2.6-1.5,4.1-1.5c2.4,0,3.4,1.6,3.4,3.6v5c0,2.1,0.1,2.4,1.1,2.5l0.6,0.1&#xA;&#x9;&#x9;c0.2,0.1,0.1,0.6-0.1,0.7c-0.9-0.1-1.7-0.1-2.7-0.1c-1,0-1.9,0-2.7,0.1c-0.2-0.1-0.3-0.6-0.1-0.7l0.5-0.1c1.1-0.2,1.1-0.4,1.1-2.5&#xA;&#x9;&#x9;v-4.3c0-1.6-0.8-2.9-2.7-2.9c-1.1,0-2.1,0.5-2.5,1c-0.4,0.5-0.4,0.9-0.4,1.7v4.4c0,2.1,0.1,2.3,1.1,2.5l0.5,0.1&#xA;&#x9;&#x9;c0.2,0.1,0.1,0.6-0.1,0.7c-0.8-0.1-1.6-0.1-2.6-0.1c-1,0-1.9,0-2.7,0.1c-0.2-0.1-0.3-0.6-0.1-0.7l0.6-0.1c1.1-0.1,1.1-0.4,1.1-2.5&#xA;&#x9;&#x9;V21z">
  </path>
  <path class="st0" d="M95.1,19.1c-0.5,0-0.5,0.1-0.5,0.7v5.4c0,1.7,0.2,3.2,2.1,3.2c0.3,0,0.6-0.1,0.8-0.1c0.3-0.1,0.6-0.4,0.7-0.4&#xA;&#x9;&#x9;c0.2,0,0.3,0.3,0.3,0.5c-0.5,0.6-1.6,1.3-3,1.3c-2.5,0-3-1.4-3-3.1V20c0-0.8,0-0.8-0.6-0.8H91c-0.2-0.1-0.2-0.4-0.1-0.6&#xA;&#x9;&#x9;c0.8-0.3,1.6-0.6,1.9-0.9c0.4-0.3,0.9-1.1,1.2-1.7c0.1-0.1,0.5-0.1,0.6,0.1v1.3c0,0.5,0,0.6,0.5,0.6h3.2c0.3,0.3,0.3,1,0,1.2H95.1z">
  </path>
  <path class="st0" d="M102.5,21.9c-0.8,0-0.8,0.1-0.8,0.8c0,2.9,1.7,5.4,4.8,5.4c1,0,1.8-0.3,2.7-1.4c0.3-0.1,0.5,0.1,0.5,0.3&#xA;&#x9;&#x9;c-1,2-3,2.7-4.5,2.7c-1.9,0-3.4-0.8-4.2-1.9c-0.9-1.1-1.2-2.5-1.2-3.8c0-3.6,2.3-6.5,5.8-6.5c2.5,0,4.1,1.7,4.1,3.4&#xA;&#x9;&#x9;c0,0.4-0.1,0.6-0.1,0.8c-0.1,0.2-0.5,0.2-1.7,0.2H102.5z M104.3,21c2.1,0,2.8-0.1,3-0.3c0.1-0.1,0.2-0.2,0.2-0.6&#xA;&#x9;&#x9;c0-0.8-0.5-1.8-2.2-1.8c-1.7,0-3.2,1.6-3.2,2.5c0,0.1,0,0.1,0.2,0.1H104.3z">
  </path>
  <path class="st0" d="M113,21c0-1.1,0-1.3-0.8-1.8L112,19c-0.1-0.1-0.1-0.4,0-0.5c0.7-0.2,2.2-1,2.9-1.4c0.1,0,0.2,0.1,0.2,0.2V19&#xA;&#x9;&#x9;c0,0.1,0,0.2,0.1,0.3c1-0.8,2.1-1.7,3.2-1.7c0.7,0,1.3,0.5,1.3,1.2c0,1-0.8,1.3-1.2,1.3c-0.3,0-0.4-0.1-0.6-0.2&#xA;&#x9;&#x9;c-0.4-0.3-0.9-0.5-1.3-0.5c-0.5,0-0.8,0.3-1,0.6c-0.3,0.4-0.4,1.2-0.4,2.2v3.9c0,2.1,0.1,2.4,1.2,2.5l1,0.1&#xA;&#x9;&#x9;c0.2,0.1,0.1,0.6-0.1,0.7c-1.4-0.1-2.2-0.1-3.2-0.1c-1,0-1.9,0-2.7,0.1c-0.2-0.1-0.3-0.6-0.1-0.7l0.5-0.1c1.1-0.2,1.1-0.4,1.1-2.5&#xA;&#x9;&#x9;V21z">
  </path>
  <path class="st0" d="M122,21c0-1.1,0-1.3-0.8-1.8L121,19c-0.1-0.1-0.1-0.4,0-0.5c0.8-0.3,2.1-1,2.9-1.6c0.2,0,0.3,0.1,0.3,0.2&#xA;&#x9;&#x9;c-0.1,0.5-0.1,1-0.1,1.3c0,0.2,0.1,0.4,0.3,0.4c0.4-0.2,2.2-1.4,4.1-1.4c2.9,0,4.8,2.4,4.8,5.3c0,4-3,6.9-7.1,6.9&#xA;&#x9;&#x9;c-0.5,0-1.3-0.1-1.6-0.1c-0.3,0.1-0.4,0.2-0.4,0.8v3c0,2.1,0.1,2.3,1.1,2.5l1.1,0.1c0.2,0.1,0.1,0.6-0.1,0.7&#xA;&#x9;&#x9;c-1.4-0.1-2.2-0.1-3.2-0.1c-1,0-1.9,0-2.7,0.1c-0.2-0.1-0.3-0.6-0.1-0.7l0.6-0.1c1.1-0.1,1.1-0.4,1.1-2.5V21z M124.2,26.4&#xA;&#x9;&#x9;c0,0.9,0.3,1.3,0.9,1.7c0.6,0.4,1.5,0.6,2.1,0.6c2.4,0,3.8-2.2,3.8-5.2c0-2.3-1.3-4.7-3.9-4.7c-1.2,0-2.1,0.5-2.5,0.8&#xA;&#x9;&#x9;c-0.3,0.3-0.3,0.8-0.3,1.7V26.4z">
  </path>
  <path class="st0" d="M136.6,21c0-1.1,0-1.3-0.8-1.8l-0.3-0.2c-0.1-0.1-0.1-0.4,0-0.5c0.7-0.2,2.2-1,2.9-1.4c0.1,0,0.2,0.1,0.2,0.2&#xA;&#x9;&#x9;V19c0,0.1,0,0.2,0.1,0.3c1-0.8,2.1-1.7,3.2-1.7c0.7,0,1.3,0.5,1.3,1.2c0,1-0.8,1.3-1.2,1.3c-0.3,0-0.4-0.1-0.6-0.2&#xA;&#x9;&#x9;c-0.4-0.3-0.9-0.5-1.3-0.5c-0.5,0-0.8,0.3-1,0.6c-0.3,0.4-0.4,1.2-0.4,2.2v3.9c0,2.1,0.1,2.4,1.2,2.5l1,0.1&#xA;&#x9;&#x9;c0.2,0.1,0.1,0.6-0.1,0.7c-1.4-0.1-2.2-0.1-3.2-0.1c-1,0-1.9,0-2.7,0.1c-0.2-0.1-0.3-0.6-0.1-0.7l0.6-0.1c1.1-0.2,1.1-0.4,1.1-2.5&#xA;&#x9;&#x9;V21z">
  </path>
  <path class="st0" d="M146.2,21c0-1.1,0-1.3-0.8-1.8l-0.3-0.2c-0.1-0.1-0.1-0.4,0-0.5c0.7-0.2,2.3-1,3-1.4c0.1,0,0.3,0.1,0.3,0.2&#xA;&#x9;&#x9;c-0.1,1-0.1,2.4-0.1,3.6v5.2c0,2.1,0.1,2.4,1.1,2.5l0.6,0.1c0.2,0.1,0.1,0.6-0.1,0.7c-0.9-0.1-1.7-0.1-2.7-0.1c-1,0-1.9,0-2.7,0.1&#xA;&#x9;&#x9;c-0.2-0.1-0.3-0.6-0.1-0.7l0.6-0.1c1.1-0.1,1.1-0.4,1.1-2.5V21z M148.6,12.8c0,1-0.7,1.5-1.5,1.5c-0.9,0-1.5-0.7-1.5-1.4&#xA;&#x9;&#x9;c0-1,0.7-1.6,1.6-1.6S148.6,11.9,148.6,12.8">
  </path>
  <path class="st0" d="M158.7,18c0.3,0.6,0.5,1.6,0.5,2.3c-0.1,0.2-0.5,0.3-0.7,0.1c-0.5-1.3-1.4-2.1-2.5-2.1c-1.1,0-1.9,0.7-1.9,1.8&#xA;&#x9;&#x9;c0,1.2,1.2,1.8,2.2,2.4c1.5,0.9,3,1.9,3,3.9c0,2.2-2,3.3-4.2,3.3c-1.4,0-2.4-0.3-3.1-0.9c-0.2-0.6-0.4-2-0.3-2.9&#xA;&#x9;&#x9;c0.1-0.2,0.5-0.2,0.7,0c0.5,1.6,1.4,3,3.1,3c1,0,1.9-0.6,1.9-1.9c0-1.3-1.2-2.1-2.2-2.7c-1.7-1-2.9-2-2.9-3.6&#xA;&#x9;&#x9;c0-2.1,1.7-3.3,3.9-3.3C157.4,17.5,158.4,17.8,158.7,18">
  </path>
  <path class="st0" d="M163.9,21.9c-0.8,0-0.8,0.1-0.8,0.8c0,2.9,1.7,5.4,4.8,5.4c1,0,1.8-0.3,2.7-1.4c0.3-0.1,0.5,0.1,0.5,0.3&#xA;&#x9;&#x9;c-1,2-3,2.7-4.5,2.7c-1.9,0-3.4-0.8-4.2-1.9c-0.9-1.1-1.2-2.5-1.2-3.8c0-3.6,2.3-6.5,5.8-6.5c2.5,0,4.1,1.7,4.1,3.4&#xA;&#x9;&#x9;c0,0.4-0.1,0.6-0.1,0.8c-0.1,0.2-0.5,0.2-1.7,0.2H163.9z M165.7,21c2.1,0,2.8-0.1,3-0.3c0.1-0.1,0.2-0.2,0.2-0.6&#xA;&#x9;&#x9;c0-0.8-0.5-1.8-2.2-1.8c-1.7,0-3.2,1.6-3.2,2.5c0,0.1,0,0.1,0.2,0.1H165.7z">
  </path>
  <path class="st0" d="M64.8,50.3c0,3,0.1,3.4,1.9,3.6l0.8,0.1c0.2,0.1,0.1,0.6-0.1,0.7c-1.7-0.1-2.6-0.1-3.8-0.1&#xA;&#x9;&#x9;c-1.2,0-2.3,0-3.5,0.1c-0.2-0.1-0.2-0.5-0.1-0.7l0.6-0.1c1.7-0.2,1.7-0.6,1.7-3.6V39.6c0-2.5-0.1-3-1.4-3.1l-1-0.1&#xA;&#x9;&#x9;c-0.2-0.2-0.2-0.6,0.1-0.7c1.5-0.2,3.3-0.2,5.7-0.2c2.4,0,4.2,0.3,5.6,1.2c1.3,0.8,2.3,2.3,2.3,4.3c0,2.7-1.7,4-2.9,4.6&#xA;&#x9;&#x9;c-1.3,0.6-2.8,0.9-4,0.9c-0.2-0.1-0.2-0.5,0-0.6c3.1-0.6,4.3-2.3,4.3-4.9c0-2.8-1.6-4.6-4.7-4.6c-1.5,0-1.6,0.1-1.6,1V50.3z">
  </path>
  <path class="st0" d="M75.5,46.3c0-1.1,0-1.3-0.8-1.8l-0.3-0.2c-0.1-0.1-0.1-0.4,0-0.5c0.7-0.2,2.2-1,2.9-1.4c0.1,0,0.2,0.1,0.2,0.2&#xA;&#x9;&#x9;v1.7c0,0.1,0,0.2,0.1,0.3c1-0.8,2.1-1.7,3.2-1.7c0.7,0,1.3,0.5,1.3,1.2c0,1-0.8,1.3-1.2,1.3c-0.3,0-0.4-0.1-0.6-0.2&#xA;&#x9;&#x9;c-0.4-0.3-0.9-0.5-1.3-0.5c-0.5,0-0.8,0.3-1,0.6c-0.3,0.4-0.4,1.2-0.4,2.2v3.9c0,2.1,0.1,2.4,1.2,2.5l1,0.1&#xA;&#x9;&#x9;c0.2,0.1,0.1,0.6-0.1,0.7c-1.4-0.1-2.2-0.1-3.2-0.1c-1,0-1.9,0-2.7,0.1c-0.2-0.1-0.3-0.6-0.1-0.7l0.5-0.1c1.1-0.2,1.1-0.4,1.1-2.5&#xA;&#x9;&#x9;V46.3z">
  </path>
  <path class="st0" d="M94.8,48.8c0,3.6-2.5,6.2-6.1,6.2c-3.3,0-5.9-2.3-5.9-6c0-3.6,2.7-6.2,6.2-6.2C92.1,42.8,94.8,45.2,94.8,48.8&#xA;&#x9;&#x9; M88.5,43.7c-1.9,0-3.3,1.8-3.3,5c0,2.6,1.2,5.5,3.7,5.5c2.5,0,3.3-2.7,3.3-4.9C92.3,46.8,91.3,43.7,88.5,43.7">
  </path>
  <path class="st0" d="M107.5,50.4c0,2.3,0,3.4,0.8,3.4c0.3,0,0.8-0.1,1.2-0.3c0.2,0.1,0.2,0.8,0,0.9c-1.2,0.2-3,0.6-3.8,0.9&#xA;&#x9;&#x9;c-0.2,0-0.3-0.1-0.3-0.2v-0.5c0-0.4,0-0.8-0.1-0.9h-0.1c-1.3,0.9-2.3,1.3-3.6,1.3c-3.2,0-5.4-2.5-5.4-5.6c0-4,3.1-6.7,7-6.7&#xA;&#x9;&#x9;c1,0,1.6,0.1,1.9,0.3c0.1,0,0.2-0.2,0.2-0.4v-4.4c0-1.7,0-1.9-0.9-2.4l-0.3-0.2c-0.1-0.1-0.1-0.5,0-0.6c0.7-0.2,2.1-0.7,3.1-1.2&#xA;&#x9;&#x9;c0.1,0,0.2,0.1,0.3,0.2c0,0.9-0.1,2.3-0.1,3.6V50.4z M105.3,46.1c0-0.6-0.1-0.8-0.3-1.1c-0.4-0.6-1.3-1.2-2.4-1.2&#xA;&#x9;&#x9;c-2.6,0-4,2.3-4,4.8c0,2.6,1.5,5.1,4.3,5.1c0.8,0,1.8-0.3,2.2-0.8c0.2-0.2,0.2-0.6,0.2-1.1V46.1z">
  </path>
  <path class="st0" d="M113.9,50.4c0,2,0.5,3.3,2.7,3.3c0.8,0,1.7-0.3,2.3-0.9c0.4-0.3,0.6-0.8,0.6-1.7v-4.7c0-1.9-0.2-1.9-1.1-2.3&#xA;&#x9;&#x9;L118,44c-0.2-0.1-0.2-0.5,0-0.6c1.2,0,2.7-0.2,3.4-0.5c0.1,0,0.2,0.1,0.3,0.2c-0.1,0.5-0.1,1.4-0.1,2.5v4.9c0,2.3,0.1,3.2,0.9,3.2&#xA;&#x9;&#x9;c0.3,0,0.7-0.1,1.1-0.1c0.2,0.1,0.2,0.7,0,0.8c-1.1,0.2-2.8,0.5-3.8,1.1c-0.1,0-0.3-0.1-0.3-0.2v-1.2c0-0.3-0.1-0.4-0.3-0.4&#xA;&#x9;&#x9;c-0.9,0.6-2.3,1.5-4,1.5c-2.5,0-3.5-1.3-3.5-3.6v-4.8c0-1.8,0-2.1-0.9-2.5l-0.3-0.1c-0.2-0.1-0.1-0.5,0.1-0.6&#xA;&#x9;&#x9;c1.3,0,2.5-0.3,3.1-0.5c0.2,0,0.3,0.1,0.3,0.2c-0.1,0.5-0.1,1.1-0.1,2.5V50.4z">
  </path>
  <path class="st0" d="M134.2,43.3c0.2,0.2,0.4,0.7,0.4,1.2c0,0.5-0.3,1.1-0.6,1.1c-0.1,0-0.3-0.1-0.4-0.2c-0.6-0.8-1.7-1.5-2.9-1.5&#xA;&#x9;&#x9;c-2,0-4,1.6-4,4.7c0,2.3,1.6,4.9,4.7,4.9c1.7,0,2.5-0.8,3.2-1.7c0.2-0.1,0.5,0.1,0.5,0.4c-1,2.1-3.2,3-4.8,3c-1.5,0-3-0.5-4-1.5&#xA;&#x9;&#x9;c-1-1-1.7-2.4-1.7-4.3c0-3.1,2.2-6.5,7-6.5C132.3,42.8,133.4,43,134.2,43.3">
  </path>
  <path class="st0" d="M140.4,44.4c-0.5,0-0.5,0.1-0.5,0.7v5.4c0,1.7,0.2,3.2,2.1,3.2c0.3,0,0.5-0.1,0.8-0.1c0.3-0.1,0.6-0.4,0.7-0.4&#xA;&#x9;&#x9;c0.2,0,0.3,0.3,0.3,0.5c-0.5,0.6-1.6,1.3-3,1.3c-2.5,0-3-1.4-3-3.1v-6.6c0-0.8,0-0.8-0.6-0.8h-0.8c-0.2-0.1-0.2-0.4-0.1-0.6&#xA;&#x9;&#x9;c0.8-0.3,1.6-0.6,1.8-0.9c0.4-0.3,0.9-1.1,1.2-1.7c0.1-0.1,0.5-0.1,0.6,0.1v1.3c0,0.5,0,0.6,0.5,0.6h3.2c0.3,0.3,0.3,1,0,1.2H140.4&#xA;&#x9;&#x9;z">
  </path>
  <path class="st0" d="M152,43.3c0.3,0.6,0.5,1.6,0.5,2.3c-0.1,0.2-0.5,0.3-0.7,0.1c-0.5-1.3-1.4-2.1-2.5-2.1c-1.1,0-1.9,0.7-1.9,1.8&#xA;&#x9;&#x9;c0,1.2,1.2,1.8,2.2,2.4c1.5,0.9,3,1.9,3,3.9c0,2.2-2,3.3-4.2,3.3c-1.4,0-2.4-0.3-3.1-0.9c-0.2-0.5-0.4-2-0.3-2.9&#xA;&#x9;&#x9;c0.1-0.2,0.5-0.2,0.7,0c0.5,1.6,1.4,3,3.1,3c1,0,1.9-0.6,1.9-1.9c0-1.3-1.2-2.1-2.2-2.7c-1.7-1-2.9-2-2.9-3.6&#xA;&#x9;&#x9;c0-2.1,1.7-3.3,3.9-3.3C150.6,42.8,151.7,43.1,152,43.3">
  </path>
  <polygon class="st0" points="0,0 52.3,0 52.3,13.1 34.9,19.4 34.9,13.1 16.9,22.5 31.6,18.5 31.6,25.3 52.3,18.2 52.3,32 &#xA;&#x9;&#x9;34.9,38.3 34.9,31.9 16.9,41.3 31.6,37.3 31.6,44.1 52.3,37.1 52.3,55.3 0,55.3">
  </polygon>
 </g>
</svg>